<svg width="45" height="45" viewBox="0 0 45 45" fill="none" xmlns="http://www.w3.org/2000/svg">
<g id="selfhst:facebook">
<path id="Vector" d="M18.791 44.7715C8.10352 42.8643 0 33.6357 0 22.5C0 10.125 10.125 0 22.5 0C34.875 0 45 10.125 45 22.5C45 33.6357 36.8965 42.8643 26.209 44.7715L24.9697 43.7607H20.0215L18.791 44.7715Z" fill="#0866FF"/>
<path id="Vector_2" d="M31.2715 28.8018L32.2822 22.5H26.3232V18.1143C26.3232 16.3125 27 14.9678 29.6982 14.9678H32.625V9.22852C31.0518 9 29.25 8.78027 27.6768 8.78027C22.5 8.78027 18.9053 11.9268 18.9053 17.5518V22.5H13.2803V28.8018H18.9053V44.666C20.1445 44.8945 21.3838 45 22.6143 45C23.8535 45 25.0928 44.8857 26.3232 44.666V28.8018H31.2715Z" fill="white"/>
</g>
</svg>
